<?xml version="1.0" encoding="utf-8"?>
<!-- Generator: Adobe Illustrator 23.0.0, SVG Export Plug-In . SVG Version: 6.00 Build 0)  -->
<svg version="1.1" id="Layer_1" xmlns:figma="http://www.figma.com/figma/ns"
	 xmlns="http://www.w3.org/2000/svg" xmlns:xlink="http://www.w3.org/1999/xlink" x="0px" y="0px" viewBox="0 0 101.9 101"
	 style="enable-background:new 0 0 101.9 101;" xml:space="preserve">
<style type="text/css">
	.st0{enable-background:new    ;}
	.st1{fill:#231F20;}
</style>
<g>
	<g class="st0">
		<path class="st1" d="M62.7,7.6c-0.1,0.1-0.2,0.2-0.2,0.3c0,0.1,0,0.3,0.1,0.5c0.1,0.2,0.1,0.4,0.1,0.7s-0.2,0.5-0.3,0.5
			c-0.1,0-0.2,0-0.2,0.1c0,0.1-0.1,0.2-0.1,0.3c-0.1,0.1-0.1,0.3-0.2,0.6c0,0.2-0.1,0.3-0.3,0.2c-0.2-0.1-0.3-0.1-0.4,0
			c-0.1,0.1-0.1,0.3-0.1,0.6s-0.1,0.6-0.3,1.1c0,0.1-0.1,0.3-0.1,0.4s-0.1,0.3-0.2,0.6c-0.3,0.1-0.3,0.3-0.1,0.7
			c0,0.1,0,0.2-0.1,0.3c-0.1,0.2-0.2,0.4-0.3,0.6s-0.2,0.4-0.3,0.6c-0.1,0.1-0.2,0.1-0.4,0c-0.2,0-0.5-0.1-0.7-0.1
			c-0.2,0-0.4,0-0.6,0.3h-0.3c-0.5-0.1-0.9-0.2-1.3-0.3c-0.4-0.1-0.8-0.2-1.2-0.3c-0.8-0.1-1.6-0.3-2.4-0.4
			c-0.8-0.1-1.6-0.2-2.5-0.3c-0.2,0.5-0.3,1.1-0.4,1.7c0,0.6-0.2,1.2-0.6,1.7c-0.1,0.1-0.2,0.2-0.2,0.4s-0.1,0.4-0.1,0.7
			c-0.1,0.7-0.3,1.5-0.4,2.2c-0.2,0.7-0.3,1.5-0.6,2.2c-0.2,0.4-0.3,0.8-0.5,1.3c-0.1,0.5-0.2,1-0.1,1.6c0,0.3-0.1,0.5-0.2,0.7
			c-0.2,0.4-0.3,0.8-0.4,1.2c-0.1,0.4-0.2,0.9-0.2,1.3c-0.1,0.4-0.1,0.8-0.1,1.1c0,0.3-0.1,0.6-0.2,0.9c-0.1,0.3-0.2,0.7-0.3,1
			c-0.1,0.3-0.2,0.7-0.4,1c-0.2,0.3-0.3,0.6-0.3,1c0,0.3-0.1,0.7-0.1,1.1c0,0.2-0.1,0.5-0.1,0.6c0,0.2-0.1,0.3-0.2,0.5
			c-0.2,0.2-0.2,0.5-0.2,0.8c0.1,0.3,0.1,0.6-0.1,0.8c-0.2,0.3-0.4,0.8-0.5,1.3c0,0.1-0.1,0.2-0.1,0.4c0,0.2,0,0.3-0.1,0.5
			c-0.1,0.1-0.1,0.1-0.2,0.1c-0.1,0-0.2,0-0.3,0.1c0.2,0.6,0.3,1.1,0.2,1.6c-0.1,0.4-0.4,0.9-0.6,1.4c0.1,0.5,0.1,0.9-0.2,1.3
			c-0.1,0.2-0.2,0.5-0.3,0.8c-0.1,0.3-0.2,0.5-0.2,0.8c-0.2,0.1-0.4,0.2-0.6,0.3v0.2c0.1,0,0.3,0.1,0.5,0.1v0.8
			c-0.2,0-0.3,0.1-0.4,0.1c-0.1,0-0.3,0.1-0.4,0.1v0.2c0.1,0,0.3,0.1,0.6,0.2c-0.2,0.6-0.3,1.2-0.5,1.7c-0.2,0.5-0.3,1.1-0.5,1.7
			c-0.1,0.3-0.2,0.6-0.3,0.9c-0.1,0.3-0.3,0.5-0.7,0.7c-0.1,0-0.2,0.2-0.3,0.4c-0.1,0.2-0.1,0.4-0.2,0.6c0.1,0,0.2,0,0.2-0.1
			c0.1-0.1,0.1-0.2,0.1-0.3c0-0.1,0.1-0.2,0.2-0.3c0.1,0,0.2,0,0.4,0.1c-0.1,0.2-0.1,0.4-0.2,0.5c-0.1,0.1-0.2,0.3-0.3,0.6
			c-0.1,0.4-0.3,0.7-0.4,1c-0.1,0.3-0.3,0.6-0.4,1c-0.1,0.2-0.2,0.4-0.3,0.5c-0.1,0.1-0.2,0.3-0.3,0.5c0.2,0.2,0.3,0.5,0.2,0.7
			c-0.1,0.2-0.2,0.5-0.3,0.7c-0.1,0.3-0.2,0.6-0.4,0.9c-0.1,0.3-0.2,0.7-0.3,1.1c-0.1,0.2-0.2,0.4-0.4,0.6c-0.2,0.1-0.3,0.3-0.4,0.6
			c-0.1,0.4-0.2,0.8-0.4,1.2c-0.2,0.4-0.4,0.8-0.5,1.2c-0.1,0.1-0.2,0.3-0.3,0.5c-0.1,0.2-0.2,0.4-0.3,0.5c-0.1,0.1-0.2,0.3-0.3,0.4
			c-0.1,0.1-0.1,0.3-0.1,0.6c0,0,0,0.2-0.1,0.4c-0.3,0.4-0.6,0.9-0.8,1.3s-0.5,0.9-0.8,1.4c-0.1,0.1-0.1,0.2-0.2,0.3
			c0,0.1-0.1,0.2-0.2,0.3c-0.2,0.5-0.4,1-0.5,1.5c-0.2,0.4-0.5,0.8-0.8,1c-0.1,0.1-0.1,0.2-0.2,0.4s-0.1,0.3-0.2,0.4
			c-0.2,0.3-0.3,0.7-0.4,1c-0.1,0.3-0.3,0.6-0.4,1c-0.1,0.1-0.3,0.3-0.5,0.4c-0.4,0.2-0.7,0.7-0.8,1.4c-0.1,0.2-0.1,0.4-0.2,0.4
			c-0.5,0.4-1,0.9-1.4,1.5c-0.4,0.6-0.8,1.1-1.3,1.6c-0.1,0.1-0.2,0.2-0.3,0.3c-0.1,0.1-0.3,0.2-0.4,0.4c-0.2,0.2-0.4,0.5-0.7,0.7
			c-0.2,0.2-0.5,0.5-0.7,0.7c-0.1,0.1-0.2,0.3-0.3,0.4c-0.1,0.1-0.3,0.2-0.5,0.1c-0.1,0-0.1,0-0.2,0.1c-0.1,0.1-0.1,0.2-0.2,0.3
			c-0.6,0.6-1.2,1.1-1.8,1.4c-0.7,0.3-1.3,0.7-1.9,1.1c-0.1,0.1-0.2,0.1-0.3,0.1c-0.1,0-0.2,0-0.4,0.1c-0.2,0-0.4,0.1-0.6,0.2
			c-0.2,0.1-0.4,0.1-0.6,0.1c-0.5,0-1,0.1-1.5,0.3c-0.5,0.2-1,0.2-1.5-0.1c-0.2-0.1-0.4-0.1-0.6-0.1c-0.2,0-0.4,0-0.7,0
			c-0.2,0-0.3-0.1-0.4-0.2c-0.1-0.1-0.2-0.1-0.4-0.2c-0.9-0.4-1.8-0.9-2.6-1.4s-1.7-1.2-2.5-2c-0.2-0.2-0.4-0.4-0.6-0.6
			c-0.2-0.2-0.3-0.4-0.5-0.6c-0.1-0.1-0.2-0.3-0.3-0.6c-0.1-0.2-0.2-0.4-0.3-0.6c-0.2-0.4-0.4-1-0.6-1.8c0.2,0,0.4,0,0.5,0.1
			s0.2,0.3,0.3,0.5C6,81.1,6.5,81.7,7,82s1.1,0.5,1.7,0.6c1.2,0.2,2.3,0.1,3.3-0.3c0.4-0.2,0.9-0.4,1.3-0.6c0.5-0.1,0.9-0.3,1.4-0.6
			c0.8-0.4,1.7-1,2.4-1.6c0.8-0.6,1.5-1.3,2.3-2c1.2-1.1,2.3-2.4,3.4-3.8c1-1.4,2-2.9,3-4.5c0.5-0.7,1-1.5,1.4-2.2
			c0.5-0.7,0.9-1.5,1.3-2.4c0.6-1.1,1.2-2.2,1.7-3.3c0.3-0.5,0.6-1.1,0.8-1.7c0.3-0.6,0.6-1.1,0.8-1.7c0.3-0.8,0.6-1.7,1-2.4
			c0.3-0.8,0.7-1.6,1-2.4c0.5-1.2,1-2.5,1.5-3.8c0.1-0.2,0.2-0.5,0.3-0.9c0.1-0.3,0.2-0.7,0.3-1.1c0.3-0.9,0.6-1.8,0.8-2.7
			c0.3-0.9,0.5-1.8,0.8-2.7c0.2-0.4,0.3-0.9,0.4-1.3c0.1-0.4,0.2-0.9,0.3-1.3c0.1-0.2,0.1-0.4,0.2-0.6c0-0.1,0.1-0.3,0.2-0.4
			c0.4-0.6,0.7-1.2,0.8-1.9c0.1-0.6,0.3-1.3,0.4-2c0.1-0.5,0.1-1,0.2-1.5c0.1-0.5,0.2-1,0.3-1.5c0.2-0.3,0.3-0.7,0.3-1.1
			c0.1-0.4,0.1-0.8,0.2-1.2c0.1-0.5,0.1-1,0.2-1.4c0.1-0.5,0.2-0.9,0.4-1.4c0.1-0.1,0.1-0.2,0.1-0.3c0-0.1,0-0.2,0.1-0.3
			c0.4-2.1,0.8-4.1,1.1-6.1c0.1-0.7,0.2-1.3,0.4-1.7c0.1-0.4,0.1-0.7,0.2-1c0-0.3,0.1-0.6,0.2-0.9c0-0.4,0.1-0.7,0.1-1
			s0.1-0.6,0.2-0.9H42c-0.4,0-0.8,0-1.2,0c-0.4,0-0.8,0-1.2,0c-0.4,0-0.8,0-1.2,0c-0.4,0-0.7,0-1.1,0c-0.5,0.1-1,0.1-1.5,0.1
			s-1,0.1-1.5,0.2c-0.4,0.1-0.9,0.2-1.3,0.2c-0.4,0-0.9,0.1-1.3,0.2c-0.3,0-0.6,0.1-0.9,0c-0.3,0-0.5,0-0.8,0.2
			c-0.2,0.1-0.4,0.2-0.6,0.2c-0.2,0-0.4,0.1-0.6,0.1c-0.4,0.1-0.7,0.2-1,0.2c-0.3,0-0.6,0.1-1,0.3c-0.1,0-0.3,0.1-0.4,0.2
			C26.3,15.9,26.1,16,26,16c-0.4,0.1-0.7,0.2-1,0.3c-0.3,0.1-0.7,0.2-1,0.3c0,0-0.2,0-0.4,0.1c-0.4,0.2-0.7,0.4-1.1,0.6
			c-0.4,0.2-0.7,0.4-1.1,0.6c-0.1,0.1-0.3,0.2-0.4,0.3c-0.1,0.1-0.3,0.2-0.4,0.3c-0.1,0.1-0.2,0.2-0.4,0.2c-0.1,0-0.3,0.1-0.4,0.2
			c-0.1,0.1-0.1,0.2-0.2,0.2c-0.1,0-0.1,0.1-0.2,0.2c-0.2,0.2-0.5,0.5-0.8,0.8c-0.3,0.3-0.5,0.6-0.8,0.9c-0.1,0.1-0.1,0.2-0.2,0.4
			c-0.1,0.2-0.1,0.3,0,0.4c0,0.3,0,0.6,0.1,0.9c0,0.3,0.1,0.6,0.2,0.9c0.2,0.5,0.5,1.1,0.7,1.6c0.3,0.5,0.6,1,0.8,1.6
			c0.2,0.2,0.3,0.4,0.4,0.6c0.1,0.2,0.1,0.5,0,1c-0.1,0.3-0.2,0.5-0.5,0.4c-0.1,0-0.2-0.1-0.3-0.2c-0.1-0.1-0.2-0.2-0.3-0.3
			c-0.2-0.1-0.5-0.3-0.6-0.4c-0.2-0.1-0.3-0.2-0.5-0.4c-0.2-0.3-0.4-0.6-0.6-0.9c-0.2-0.3-0.4-0.6-0.4-1c-0.1-0.5-0.2-1.1-0.3-1.6
			c-0.1-0.5-0.1-1.1-0.2-1.7c0-0.4,0-0.8,0.1-1.2c0.1-0.4,0.1-0.8-0.1-1.2c-0.1-0.1-0.1-0.3,0-0.5c0.1-0.5,0.1-0.9,0.2-1.3
			c0.1-0.4,0.1-0.8,0.2-1.3c0.1-0.7,0.4-1.4,0.7-2.1c0.3-0.7,0.7-1.3,1.1-1.8c0.3-0.2,0.5-0.5,0.8-0.7c0.2-0.2,0.5-0.4,0.8-0.7
			c0.5-0.4,0.9-0.9,1.4-1.2s1-0.7,1.5-0.9c0.4-0.1,0.8-0.3,1.1-0.6c0.4-0.2,0.7-0.5,1.1-0.7c0.1,0,0.2,0.1,0.3,0.2v0.2v0.1
			C25,8.9,24.8,9,24.7,9.1c-0.2,0.1-0.4,0.2-0.5,0.2c-0.3,0-0.4,0.2-0.3,0.6c0,0,0.1,0.2,0.1,0.4h-0.1h-0.1
			c-0.1-0.1-0.1-0.2-0.1-0.4c0-0.3-0.1-0.4-0.4-0.3c-0.2,0.1-0.5,0.3-0.7,0.4c-0.2,0.1-0.5,0.3-0.7,0.4c0,0-0.1,0.1-0.1,0.1
			c-0.1,0-0.1,0.1-0.2,0.1c0,0,0.1,0.1,0.1,0.1c0,0,0,0.1,0.1,0.1c0.2-0.1,0.4-0.2,0.7-0.3c0.2-0.1,0.5-0.2,0.7-0.3
			c-0.1,0.2-0.1,0.4-0.1,0.4c-0.3,0-0.6,0.2-0.8,0.5c-0.3,0.3-0.6,0.3-0.9,0c-0.1-0.1-0.1-0.1-0.2-0.1c0,0-0.1,0.1-0.2,0.1
			c-0.1,0-0.1,0.1-0.2,0.2c-0.1,0.1-0.2,0.2-0.3,0.3c0.1,0.2,0.2,0.4,0.1,0.6c-0.1,0.1-0.2,0.3-0.3,0.4c-0.1,0-0.2,0-0.3,0
			c-0.1,0-0.2-0.1-0.3-0.1c-0.1,0.2-0.2,0.4-0.3,0.6c-0.1,0.2-0.1,0.4-0.2,0.7h0.1c0,0,0.1,0,0.1,0c0,0,0,0,0.1,0
			c0.3-0.2,0.6-0.5,0.8-0.7c0.3-0.2,0.5-0.4,0.8-0.6c0.3-0.2,0.6-0.4,0.8-0.6c0.3-0.2,0.6-0.3,0.9-0.4c0.3-0.1,0.5-0.3,0.8-0.5
			c0.2-0.2,0.5-0.4,0.8-0.5c0.4,0,0.7-0.1,1-0.1c0.3,0,0.6-0.3,0.9-0.7h0.2c0.2,0,0.3-0.1,0.5-0.1c0.2,0,0.3,0,0.5-0.1
			c0.2,0,0.4-0.1,0.5-0.2C28,9.2,28.1,9.1,28.3,9c0.1-0.1,0.1-0.1,0.2-0.1c0.1,0,0.2,0,0.3,0c0.2,0,0.3-0.1,0.5-0.2
			c0.1-0.1,0.3-0.1,0.5,0.2h0.1h0.1c0.2-0.2,0.4-0.4,0.6-0.3c0.2,0,0.4,0.1,0.6,0.2c0-0.4,0.1-0.6,0.2-0.7c0.1,0,0.3,0,0.6,0.1
			c0.1,0,0.3,0,0.4,0c0.2,0,0.3-0.2,0.4-0.4c-0.2,0-0.3,0-0.3-0.1c-0.1,0-0.2,0-0.3-0.1c0.1,0,0.1-0.1,0.1-0.1c0,0,0.1-0.1,0.1-0.1
			h0.2c0.2,0,0.4-0.1,0.6,0c0.2,0,0.4,0,0.5-0.2c0.2-0.2,0.5-0.3,0.7-0.3c0.2,0,0.5,0,0.8-0.1c0.2-0.1,0.4-0.1,0.6,0
			c0.2,0.1,0.4,0.1,0.7,0.2h0.2c0.2-0.2,0.4-0.4,0.6-0.3c0.2,0,0.4,0.1,0.6,0.2H38c0-0.4-0.1-0.6-0.2-0.7c-0.1-0.1-0.3-0.1-0.6-0.1
			c-0.2,0-0.4,0.1-0.6,0.1c-0.2,0-0.4,0-0.7,0.1c-0.1,0-0.2,0-0.2,0.1c-0.2,0.1-0.4,0.2-0.6,0.3c-0.2,0.1-0.4,0-0.7-0.1
			c0,0-0.1,0-0.3,0.1c-0.4,0.3-0.7,0.4-1.1,0.4s-0.7,0-1.1,0.1c-0.4,0.1-0.8,0.2-1.2,0.3c-0.4,0-0.8,0.1-1.2,0.2
			c-0.1,0.1-0.1,0.2-0.2,0.2c0.2,0.3,0.4,0.4,0.6,0.3c0.2-0.2,0.4-0.2,0.7-0.2c-0.1,0.4-0.2,0.6-0.4,0.7c-0.2,0.1-0.4,0-0.7-0.3
			c-0.1-0.1-0.2-0.2-0.2-0.3c-0.1-0.1-0.2-0.1-0.2-0.2c-0.3-0.1-0.6-0.1-0.9,0c-0.3,0.1-0.5,0.3-0.8,0.4v0.1
			c0.1,0.1,0.2,0.1,0.3,0.1c0.1,0,0.1,0,0.2,0.1v0.1h-0.7c0,0-0.1,0.1-0.1,0.2c0,0.1-0.1,0.1-0.2,0.1c-0.2,0-0.5,0.1-0.7,0.3
			c-0.2,0.2-0.5,0.2-0.8,0.1l-0.2,0.2L24.5,10c-0.1,0-0.1,0-0.2-0.1c0,0-0.1-0.1-0.2-0.1c0.1-0.2,0.1-0.3,0.2-0.3
			c0.3-0.1,0.6-0.2,0.9-0.4c0.3-0.1,0.5-0.3,0.8-0.4c0.1,0,0.3-0.1,0.4-0.3l-0.1-0.1c-0.2,0.1-0.4,0.1-0.5,0.1c-0.2,0-0.4,0-0.4-0.1
			c0,0-0.1,0-0.1-0.1V8.1l0.3-0.3c0.4-0.1,0.7-0.2,1-0.3c0.3-0.1,0.6-0.2,1-0.3c0.9-0.3,1.7-0.6,2.5-0.8c0.2-0.1,0.4-0.2,0.7-0.2
			c0.2,0,0.5-0.1,0.8-0.1c0.3,0,0.6-0.1,0.8-0.1c0.3,0,0.6-0.1,0.8-0.1c0.5-0.1,1-0.2,1.4-0.3c0.5-0.1,0.9-0.2,1.4-0.3
			c0.4,0,0.8-0.1,1.1,0c0.4,0,0.7,0,1.1,0c0.6,0,1.2,0,1.8,0c0.6,0,1.2,0,1.8,0c0.6,0,1.1,0,1.7,0c0.6,0,1.1,0,1.7,0.1h0.8h1.8
			c0.4,0,0.8,0.1,1.2,0.1c0.4,0,0.8,0.1,1.2,0.1c0.3,0,0.6,0.1,0.9,0c0.3,0,0.6,0,0.8,0c0.4,0.1,0.9,0.2,1.3,0.2
			c0.4,0,0.9,0,1.3-0.3c0,0,0,0.1,0.1,0.1H55L55,5.6c0.1,0.2,0.4,0.2,0.7,0.1c0.4,0.1,0.9,0.2,1.5,0.4c0.6,0.1,1.2,0.3,1.9,0.4
			c0.7,0.1,1.3,0.3,2,0.4c0.7,0.1,1.2,0.2,1.8,0.3C62.8,7.4,62.8,7.5,62.7,7.6z M13.5,83.9c0.1-0.1,0.2-0.2,0.3-0.2
			c0.1,0,0.2-0.1,0.3-0.2c0-0.1,0-0.1-0.1-0.1c-0.1,0-0.2,0-0.3,0.1c-0.1,0-0.2,0.1-0.2,0.3v0.1C13.4,83.8,13.5,83.8,13.5,83.9
			C13.5,83.8,13.5,83.8,13.5,83.9z M14.4,83.1c0.1,0.1,0.2,0.1,0.3,0.1c0.8-0.2,1.6-0.6,2.4-1.1c0.8-0.5,1.5-1.1,2.2-1.8
			c0.2-0.2,0.4-0.5,0.6-0.7c0.2-0.2,0.4-0.3,0.7-0.4c0.1,0,0.3-0.3,0.5-0.7c0.1-0.1,0.1-0.2,0.2-0.3c0.1-0.1,0.1-0.2,0.2-0.3
			c0.4-0.5,0.9-1,1.4-1.4s0.9-1.1,1.2-1.8c0.4-0.2,0.7-0.6,1-1c0.3-0.4,0.5-0.9,0.7-1.3c0.1-0.3,0.3-0.6,0.5-0.9
			c0.2-0.3,0.4-0.5,0.5-0.8c0.4-0.7,0.8-1.4,1.2-2c0.4-0.7,0.8-1.3,1.2-2c0.2-0.3,0.3-0.7,0.4-0.9c0.1-0.3,0.1-0.6,0.1-1
			c-0.1,0-0.1,0.1-0.2,0c-0.1,0-0.1,0-0.2,0.1c-0.1,0.2-0.3,0.5-0.4,0.7c-0.2,0.2-0.3,0.5-0.4,0.9c-0.2,0.5-0.5,1.1-0.7,1.6
			c-0.3,0.5-0.6,1-0.8,1.4c-0.6,0.8-1.2,1.7-1.7,2.6c-0.5,0.9-1.1,1.8-1.7,2.6c-0.8,1.1-1.6,2.1-2.5,3c-0.9,1.1-1.9,2.1-2.9,3
			s-2.1,1.6-3.2,2.3c-0.1,0-0.1,0-0.2,0.1C14.5,83,14.5,83,14.4,83.1z M19.1,82.5c0.4-0.1,0.7-0.4,1.1-0.7c0.3-0.3,0.6-0.6,1-0.9
			c0.1-0.1,0.3-0.3,0.4-0.5c0.1-0.2,0.3-0.3,0.4-0.4c0.2-0.1,0.4-0.2,0.5-0.4c0.1-0.1,0.2-0.3,0.3-0.4c0.1-0.1,0.2-0.2,0.3-0.4
			c0.1-0.1,0.2-0.3,0.3-0.4c0.4-0.4,0.7-0.8,1-1.1c0.3-0.3,0.6-0.7,0.9-1.2c0.2-0.5,0.5-1,0.9-1.4c0.3-0.4,0.6-0.9,0.8-1.4
			c0-0.1,0.1-0.1,0.3-0.1c0.1-0.1,0.1-0.2,0.2-0.2c0.1,0,0.1-0.1,0.1-0.1c0.2-0.7,0.4-1.2,0.7-1.6c0.3-0.4,0.7-0.7,1.1-1
			c0-0.2,0.1-0.5,0.1-0.8c0-0.3,0-0.5,0.1-0.6c0.1-0.1,0.2-0.2,0.4-0.2c0.2,0,0.4-0.1,0.5-0.1c0-0.2,0-0.5,0-0.8s0-0.5,0.1-0.7
			c0.1-0.2,0.2-0.4,0.2-0.7s0.3-0.3,0.6-0.2c0-0.4,0-0.7,0.1-0.9c0.1-0.8,0.3-1.5,0.7-2c0.4-0.5,0.7-1.2,0.8-1.9c0.2,0,0.4,0,0.5,0
			c0.1,0,0.3,0,0.5,0v-1c0-0.1,0-0.2-0.1-0.4c0-0.1,0-0.3,0.1-0.4c0.2-0.5,0.4-1.1,0.5-1.6c0.2-0.5,0.4-1,0.6-1.5
			c0.2-0.4,0.3-0.8,0.4-1.2c0.1-0.4,0.2-0.8,0.5-1.1c0-0.6,0.1-1.1,0.3-1.5c0.2-0.4,0.4-0.9,0.5-1.4c0.1-0.1,0.1-0.3,0.2-0.4
			c0.1-0.1,0.1-0.3,0.1-0.4c-0.1-0.6,0-1,0.2-1.4c0.2-0.3,0.4-0.6,0.6-0.9c0.1-0.4,0.1-0.7,0.1-0.9c0-0.2,0-0.4,0.1-0.6
			c0.2-0.7,0.4-1.5,0.6-2.2c0.2-0.7,0.5-1.4,0.6-2.2c0.3-1.5,0.7-3,1.1-4.6c0.4-1.5,0.7-3.1,0.9-4.7c0.1-0.2,0.1-0.4,0.1-0.6
			c0,0-0.1,0-0.1-0.1c-0.2,0.8-0.4,1.6-0.6,2.3c-0.2,0.8-0.4,1.7-0.6,2.6c-0.2,0.9-0.4,1.7-0.7,2.6c-0.2,0.8-0.4,1.7-0.7,2.6
			c-0.3,0.9-0.5,1.8-0.8,2.7c-0.1,0.2-0.1,0.5-0.2,0.8c-0.1,0.3-0.1,0.5-0.2,0.8c-0.3,0.8-0.5,1.6-0.8,2.4c-0.2,0.7-0.5,1.5-0.8,2.4
			c-0.2,0.7-0.5,1.4-0.7,2.1c-0.2,0.7-0.4,1.4-0.7,2.1c-0.3,0.8-0.6,1.6-0.9,2.3c-0.3,0.7-0.6,1.5-0.9,2.2c-0.1,0.2-0.2,0.5-0.3,0.7
			c-0.1,0.2-0.2,0.4-0.3,0.7c-0.2,0.6-0.4,1.2-0.7,1.7c-0.2,0.5-0.5,1.1-0.8,1.7c-0.3,0.5-0.6,1.1-1,1.7c-0.4,0.6-0.7,1.2-0.9,1.9
			c-0.4,0.9-0.9,1.8-1.4,2.5s-1,1.5-1.5,2.4c-0.4,0.5-0.7,1.1-1.1,1.6c-0.4,0.5-0.7,1.1-1.1,1.6c-0.4,0.5-0.7,1-1.1,1.5
			c-0.3,0.5-0.7,1-1.2,1.3c-0.4,0.2-0.7,0.5-1.1,0.9c-0.3,0.3-0.7,0.7-1,1c-0.6,0.7-1.3,1.3-2,1.8c-0.7,0.5-1.4,0.9-2.1,1.3
			c-0.1,0.1-0.2,0.2-0.3,0.2c-0.1,0-0.1,0.2-0.2,0.4c0.3,0,0.6-0.1,0.9-0.1c0.3,0,0.6,0,0.9-0.1c0.2,0,0.4-0.1,0.5-0.3
			c0.2-0.1,0.3-0.3,0.4-0.5c0.2-0.4,0.4-0.7,0.7-0.7c0.4,0.1,0.6,0,0.6-0.4C19,82.7,19,82.6,19.1,82.5z M17.8,15.4
			c0.2-0.3,0.4-0.7,0.5-1c0.2-0.3,0.4-0.7,0.6-1.1c-0.2,0.1-0.5,0.4-0.8,0.9C17.9,14.6,17.7,15,17.8,15.4z M19.6,14.5
			c0.2-0.1,0.4-0.3,0.5-0.4c0.2-0.1,0.4-0.3,0.5-0.5l-0.1-0.1c-0.2,0-0.4,0.2-0.6,0.4C19.8,14,19.7,14.2,19.6,14.5z M19.8,85.1
			c0.3-0.2,0.5-0.4,0.7-0.6s0.4-0.4,0.7-0.7c-0.4,0-0.6,0-0.8,0.1C20.3,84.1,20.1,84.5,19.8,85.1z M23.2,12.5c0.1,0,0.1-0.1,0.2-0.2
			c0.1-0.1,0.1-0.2,0.2-0.3c-0.3-0.1-0.6,0-1,0.1c-0.4,0.2-0.6,0.4-0.7,0.7c-0.3-0.2-0.5-0.2-0.6,0.1c-0.1,0.2-0.2,0.4-0.4,0.4
			c0.2,0.5,0.4,0.6,0.6,0.2c0.1-0.1,0.3-0.2,0.5-0.3c0.1-0.1,0.2-0.2,0.3-0.2c0.2-0.1,0.3-0.2,0.4-0.4C22.8,12.4,23,12.4,23.2,12.5z
			 M39.5,50c0.2-0.4,0.4-0.9,0.4-1.3s0.1-0.9,0.1-1.5c-0.2,0-0.3,0.1-0.4,0.1c-0.1,0-0.1,0.1-0.1,0.3c0,0.4-0.1,0.7-0.2,1
			c-0.1,0.3-0.3,0.5-0.5,0.8c-0.1,0.2-0.3,0.5-0.3,0.8c-0.1,0.3-0.1,0.5-0.1,0.8c0,0.4-0.1,0.7-0.2,0.9c-0.1,0.2-0.2,0.5-0.3,0.7
			c0,0.1-0.1,0.2-0.2,0.2c-0.1,0-0.1,0.1-0.1,0.2c0,0.5,0,0.9-0.2,1.1c-0.2,0.2-0.3,0.5-0.5,0.7c0,0.2,0,0.5,0.1,0.6
			c0,0.2,0,0.3-0.1,0.4c-0.2,0.4-0.4,0.8-0.6,1.3s-0.4,1-0.6,1.4c-0.3,0.5-0.5,1-0.7,1.6c-0.2,0.6-0.4,1.1-0.7,1.6
			c-0.1,0.4-0.3,0.8-0.5,1.1c-0.2,0.3-0.3,0.7-0.5,1c-0.3,0.5-0.5,1.1-0.7,1.7c-0.2,0.6-0.5,1.1-0.7,1.6c-0.4,0.8-0.8,1.6-1.2,2.4
			c-0.4,0.8-0.8,1.5-1.2,2.2c-0.6,0.9-1.2,1.9-1.8,2.8c-0.6,1-1.2,1.9-1.8,2.7c-0.2,0.2-0.3,0.4-0.4,0.6c-0.1,0.2-0.2,0.5-0.3,0.8
			c-0.1,0.2-0.2,0.4-0.4,0.5c-0.2,0.1-0.3,0.3-0.2,0.7l-0.2,0.1c-0.4,0.4-0.7,0.9-1.1,1.3c-0.4,0.4-0.8,0.8-1.2,1.3l-0.3,0.2
			c0,0,0.1,0.1,0.1,0.1c0,0,0,0.1,0.1,0.1h0.3c0.3-0.2,0.5-0.4,0.8-0.7c0.2-0.2,0.5-0.5,0.8-0.7c0.1-0.1,0.2-0.2,0.3-0.4
			c0.4-0.6,0.7-1.2,1.2-1.6c0.4-0.4,0.9-0.9,1.5-1.3c-0.1-0.1-0.2-0.2-0.3-0.3c-0.1-0.1-0.2-0.2-0.3-0.3c0.1,0,0.3,0,0.3,0
			s0.2,0,0.2,0c0.2,0.3,0.4,0.2,0.6-0.2c0.4-0.6,0.7-1.1,1-1.7s0.7-1.1,1-1.7c-0.1-0.2-0.3-0.4-0.4-0.5c0.3-0.1,0.6-0.2,0.8-0.3
			c0.3-0.1,0.4-0.4,0.5-1l-0.6,0.3c0.2-0.3,0.4-0.6,0.6-1c0.2-0.3,0.4-0.7,0.6-1c0.2-0.2,0.3-0.6,0.4-1c0.1-0.4,0.3-0.6,0.7-0.7
			c0.3-0.1,0.5-0.3,0.6-0.6c0.1-0.1,0.1-0.3,0.1-0.5c0-0.2,0-0.4,0-0.7c0.4-0.3,0.6-0.5,0.6-0.6c0.1-0.1,0.1-0.2,0.2-0.5
			c0.2-0.8,0.5-1.7,0.8-2.4c0.3-0.8,0.7-1.5,1.2-2.2c0.1-0.1,0.2-0.2,0.3-0.4c0.1-0.1,0.3-0.3,0.4-0.4c-0.2,0-0.4-0.1-0.6-0.3
			c0.1-0.2,0.2-0.3,0.3-0.4c0.1-0.3,0.3-0.6,0.4-0.8c0.2-0.2,0.3-0.5,0.4-0.9c0.2-0.8,0.4-1.6,0.7-2.4c0.2-0.8,0.5-1.5,0.9-2.3
			c0.1-0.3,0.2-0.6,0.3-0.9s0.2-0.6,0.4-0.8c0.1,0,0.1-0.2,0.1-0.4c0-0.3,0-0.6,0.1-0.9S39.4,50.2,39.5,50z M39.6,9.4
			c0.1-0.1,0.1-0.1,0.2-0.1c-0.2-0.1-0.3-0.2-0.5-0.2c-0.1,0-0.3-0.1-0.5-0.2c0.1-0.2,0.2-0.3,0.3-0.4c-0.2,0.1-0.3,0.1-0.5,0.1
			c-0.2,0-0.3,0-0.4,0.3c0,0-0.1,0.1-0.1,0c0,0-0.1,0-0.1,0c-0.4,0.1-0.7,0.2-0.8,0.3c-0.1,0-0.1,0-0.2,0c-0.1,0-0.1,0-0.2,0
			c0,0-0.1,0-0.1-0.1c0-0.1,0-0.2-0.1-0.2l0.1-0.1c0,0,0.1,0,0.1,0c0,0,0,0,0.1,0c0.1,0,0.1-0.1,0.2-0.1c0.1,0,0.2,0,0.2-0.1
			c-0.2-0.3-0.4-0.4-0.5-0.4s-0.2,0.1-0.4,0.4c-0.1,0.1-0.2,0.2-0.3,0.3C36.1,8.9,36,9,35.9,9.1c0-0.1-0.1-0.3-0.1-0.4
			c0-0.1,0-0.2-0.1-0.3c0,0-0.1-0.1-0.2,0c-0.1,0-0.2,0-0.2,0l0.1,0.5c-0.4,0.4-0.6,0.4-0.7-0.2c-0.1-0.2-0.2-0.3-0.2-0.3
			c-0.2,0-0.4,0-0.7-0.1c-0.2,0-0.4,0.1-0.7,0.4c0.1,0,0.1,0,0.2,0c0.1,0,0.1,0,0.2,0c0.1,0,0.2,0,0.3,0c0.1,0,0.2,0,0.3,0
			c0,0,0.1,0.1,0.2,0.4c-0.1,0.1-0.2,0.1-0.3,0.1c-0.4-0.1-0.8-0.1-1.1,0c-0.4,0.2-0.7,0.3-1.1,0.5c-0.2,0-0.3,0.1-0.4,0.1
			c-0.1,0-0.3,0-0.5,0.1c-0.1,0.1-0.4,0.2-0.6,0.3c-0.2,0-0.3,0.1-0.5,0.1c-0.1,0-0.3,0.1-0.4,0.1c-0.2,0-0.3,0.1-0.5,0.1
			c-0.1,0-0.3,0.1-0.5,0.1c-0.3,0.1-0.5,0.2-0.6,0.2c-0.2,0-0.4,0.1-0.5,0.1c-0.2,0-0.4,0-0.5,0.1h-0.2c0.2-0.3,0.5-0.5,0.7-0.5
			c0.2,0,0.5-0.1,0.7-0.2c0.1,0,0.1,0,0.2-0.1c0.1-0.1,0.2-0.2,0.4-0.3c0.2-0.1,0.4-0.1,0.5-0.1c0.5,0.3,0.9,0.2,1.2-0.4
			c-0.1-0.4-0.3-0.5-0.6-0.3c-0.2,0.1-0.4,0.2-0.6,0.2c-0.2,0-0.5,0.1-0.7,0.2c-0.5,0.1-0.9,0.3-1.5,0.5c-0.5,0.2-1,0.4-1.5,0.6
			c-0.2,0-0.3,0.1-0.5,0.1c-0.2,0-0.3,0.1-0.5,0.2c-0.2,0-0.3,0.1-0.5,0.2c-0.2,0.1-0.3,0.2-0.6,0.3c0.2,0.2,0.3,0.3,0.4,0.4
			c0,0.1,0.1,0.2,0.1,0.4c0,0,0,0.1,0,0.2c0,0.1,0,0.1,0,0.1c0,0,0.1,0.1,0.3,0.1c0.1,0,0.3-0.1,0.4-0.1c0.1,0,0.3,0,0.4-0.1
			c0.1,0,0.4-0.2,0.6-0.4c0,0-0.1-0.1-0.1-0.1c-0.2,0-0.4,0.1-0.6,0.1c-0.2,0-0.4,0.1-0.7,0.1l-0.1-0.7c0.2,0.1,0.4,0.2,0.6,0.2
			c0.2,0,0.4-0.1,0.6-0.2c0.2-0.1,0.3-0.2,0.5-0.3c0.2-0.1,0.3-0.2,0.5-0.3c0.1,0.2,0.1,0.4,0.1,0.5c0,0.1,0.1,0.3,0.1,0.4
			c0,0.1,0.1,0.2,0.2,0.2c0.2-0.2,0.6-0.4,1-0.6c0,0,0.1,0,0.1,0c0,0,0.1,0,0.1,0c0.4-0.1,0.8-0.2,1.2-0.3s0.8-0.2,1.2-0.3
			c0.2-0.1,0.5-0.2,0.7-0.2c0.2,0,0.5-0.1,0.8-0.2c0.4,0,0.7-0.1,1-0.1c0.3,0,0.7-0.1,1-0.1c0.1,0,0.3-0.1,0.4-0.1
			c0.2,0,0.3-0.1,0.5-0.1c0.3-0.1,0.5-0.2,0.8-0.2c0.2,0,0.5-0.1,0.8-0.1c0.5-0.2,1-0.3,1.5-0.2C38.6,9.5,39.1,9.5,39.6,9.4z
			 M26.7,77.4c-0.1-0.2-0.1-0.4,0-0.4c0.1,0,0.2-0.1,0.3-0.2C26.9,77,26.8,77.2,26.7,77.4L26.7,77.4L26.7,77.4L26.7,77.4L26.7,77.4z
			 M27.1,76.8L27.1,76.8v-0.1c0.1-0.4,0.2-0.7,0.3-1c0.1-0.3,0.4-0.4,0.7-0.3c-0.2,0.2-0.3,0.4-0.5,0.6c-0.2,0.2-0.3,0.5-0.5,0.7
			V76.8z M28.1,75.2c0-0.4,0.3-0.7,0.7-0.7c-0.1,0.1-0.3,0.2-0.4,0.3S28.2,75.1,28.1,75.2z M29.9,63.2c-0.1,0.1-0.1,0.3-0.2,0.5
			c0,0.2-0.1,0.4-0.2,0.7c0.3-0.6,0.6-1.2,0.9-1.7c0.3-0.5,0.6-1.1,0.9-1.7c0.3-0.5,0.5-1.1,0.8-1.7c0.2-0.6,0.5-1.1,0.7-1.7
			c0.1-0.2,0.1-0.4,0.1-0.6c0-0.2,0-0.5,0.1-0.7L33,56.4c-0.2,0.5-0.5,1-0.7,1.4c-0.2,0.5-0.4,1-0.6,1.4c-0.4,0.7-0.7,1.3-1,2
			C30.5,61.9,30.2,62.5,29.9,63.2z M31,9.1c0,0-0.1,0.2-0.1,0.4c0,0,0.1,0,0.1,0c0,0,0.1,0,0.1,0c0.2,0,0.4-0.1,0.5-0.1
			c0.2,0,0.4,0,0.5,0c0.3,0,0.4-0.2,0.4-0.7c-0.2,0-0.4,0-0.6,0c-0.2,0-0.4,0-0.6,0.1C31.3,8.8,31.1,8.9,31,9.1z M31.4,66.1
			c0.2,0,0.3,0,0.3-0.1c0,0,0.1-0.2,0.2-0.6L31.4,66.1z M31.6,70c0.1,0,0.2-0.1,0.3-0.3v-0.1c0,0,0-0.1-0.1-0.1
			c-0.1,0-0.1,0.1-0.2,0.1c-0.1,0-0.1,0.1-0.2,0.1C31.5,69.8,31.5,69.9,31.6,70C31.6,70.1,31.6,70.1,31.6,70z M33.7,54.8
			c-0.2,0.2-0.3,0.5-0.4,0.7c-0.1,0.2-0.1,0.5-0.2,0.7c0.2-0.1,0.3-0.3,0.4-0.5C33.6,55.4,33.6,55.1,33.7,54.8z M35,58.4L35,58.3
			v-0.1c-0.1,0-0.1,0-0.2,0.1l0.2,0.2C34.9,58.5,34.9,58.5,35,58.4L35,58.4z M36.1,55.8c-0.1,0-0.1,0-0.2-0.1c0,0-0.1-0.1-0.1-0.1
			c-0.1,0.1-0.2,0.2-0.2,0.4c0,0.1,0.1,0.2,0.2,0.2C35.8,56.1,35.9,56,36.1,55.8z M38,50.2C37.9,50.2,37.9,50.2,38,50.2
			c-0.1-0.1-0.1-0.1-0.1-0.1c0,0.1-0.1,0.2-0.1,0.2c0,0-0.1,0.1-0.1,0.2c0,0,0.1,0.1,0.1,0.1c0,0,0.1,0,0.1,0.1
			C37.9,50.6,37.9,50.4,38,50.2z M39.5,45.6c-0.1-0.2-0.2-0.4-0.3-0.4c0,0-0.1,0.1-0.1,0.1c0,0-0.1,0.1-0.2,0.2
			c0,0.2,0.1,0.3,0.2,0.3c0.1,0,0.1-0.1,0.2-0.1C39.4,45.7,39.4,45.7,39.5,45.6z M39.5,44.2c0.2,0,0.4-0.1,0.4-0.3
			c0-0.2,0-0.4-0.1-0.7c-0.1,0.2-0.1,0.4-0.2,0.6C39.6,44,39.5,44.1,39.5,44.2z M40.6,52.7c-0.1-0.2-0.1-0.3-0.1-0.4
			c-0.2,0.1-0.3,0.2-0.3,0.2c0,0.1,0.1,0.2,0.2,0.3L40.6,52.7z M40.6,46.7c0.2-0.7,0.3-1.4,0.4-2c0.1-0.6,0.3-1.3,0.4-2
			c0,0-0.1,0-0.1,0c0,0,0,0-0.1,0s-0.1,0-0.1,0.1c-0.1,0.5-0.3,1.1-0.3,1.7c-0.1,0.6-0.3,1.1-0.6,1.6c-0.1,0.1-0.1,0.2-0.1,0.4
			S40.3,46.6,40.6,46.7z M42.5,8.6c0,0-0.1-0.1-0.1-0.2c-0.3,0.2-0.7,0.3-1,0.2c-0.4-0.1-0.7,0.1-0.9,0.6c0.1,0,0.1,0.1,0.2,0.2
			c0.1,0.1,0.2,0.1,0.2,0c0.2-0.1,0.3-0.2,0.5-0.3C41.6,9,41.8,8.9,42,8.8L42.5,8.6z M41.6,42.1c0.1-0.1,0.1-0.2,0.1-0.2l-0.2-0.3
			c0,0.1-0.1,0.2-0.1,0.4C41.5,42,41.5,42.1,41.6,42.1z M42,39.8c0.2-0.5,0.3-1,0.5-1.5c0.2-0.5,0.3-1,0.4-1.6h-0.3
			C42.5,37.9,42.3,38.9,42,39.8z M51.6,4.8c0,0,0,0.1,0,0.1c0,0,0,0.1,0,0.1c-0.1,0-0.2-0.1-0.3-0.1c-0.1,0-0.3,0-0.4-0.1
			c0-0.2,0-0.3,0.1-0.4c0.1,0,0.2,0.1,0.3,0.1C51.3,4.7,51.4,4.7,51.6,4.8z"/>
		<path class="st1" d="M87.2,4.8c0.2,0,0.4,0,0.6,0c0.2,0,0.3,0.2,0.2,0.6c-0.1,0.3-0.1,0.7-0.1,1c0,0.3-0.2,0.7-0.4,1.1
			c0,0.1-0.1,0.2-0.1,0.3c0,0.1-0.1,0.2-0.1,0.3c-0.2,0.7-0.3,1.3-0.5,2c-0.2,0.6-0.3,1.2-0.5,1.9c-0.2,0.8-0.4,1.7-0.6,2.5
			c-0.2,0.8-0.4,1.7-0.6,2.5c-0.3,1-0.5,2.1-0.8,3.1c-0.2,1-0.5,2.1-0.7,3.1c-0.1,0.5-0.2,1.1-0.4,1.6c-0.1,0.5-0.3,1-0.4,1.6
			c-0.1,0.5-0.3,1.1-0.3,1.7c-0.1,0.6-0.2,1.2-0.4,1.8c-0.1,0.6-0.3,1.2-0.5,1.9c-0.2,0.6-0.4,1.3-0.5,1.9c-0.2,1-0.5,1.9-0.7,2.9
			c-0.2,0.9-0.4,1.9-0.7,2.9l-1.4,6.8c-0.1,0.4-0.1,0.7-0.2,0.9c-0.1,0.4-0.1,0.8-0.2,1.3c-0.1,0.4-0.2,0.9-0.3,1.3
			c-0.1,0.4-0.2,0.8-0.3,1.1c-0.1,0.3-0.2,0.7-0.3,1.1c0,0-0.1,0.1-0.2,0.3c-0.5,0.3-0.5,0.6-0.2,0.7c0.2,0.1,0.2,0.3-0.1,0.7
			c-0.1,0-0.2-0.1-0.2-0.1c-0.1,0-0.2,0-0.2-0.1c-0.1-0.1-0.1-0.2-0.2-0.2s-0.1-0.1,0-0.2c0.1-0.2,0.2-0.4,0.2-0.6
			c0-0.2,0.1-0.3,0.1-0.5c0-0.2,0.1-0.3,0.1-0.5c0.1-0.2,0.2-0.4,0.4-0.6c0,0,0.1-0.1,0.1-0.4c0-0.2,0-0.5,0-0.7
			c0-0.2,0-0.5,0.1-0.7c0.1-0.2,0.1-0.4,0.2-0.6s0-0.3-0.1-0.4c0,0,0-0.1,0-0.2c0-0.1,0.1-0.2,0.1-0.3c0.1-0.2,0.1-0.5,0.2-0.8
			c0-0.3,0.1-0.6,0.1-0.8l1.3-5.6c0.2-0.8,0.4-1.5,0.5-2.3c0.1-0.7,0.2-1.4,0.3-2.1l-0.2,0.1c-0.1,0.3-0.1,0.6-0.2,1
			c-0.1,0.2-0.1,0.5-0.2,0.6c-0.1,0.2-0.1,0.4-0.1,0.6c-0.1,0.2-0.1,0.5-0.2,0.6c0,0.2-0.1,0.3-0.1,0.5c0,0.2-0.1,0.6-0.1,1.1
			l-1.2,5.3c-0.1,0.2-0.1,0.4-0.1,0.6c0,0.1,0,0.3-0.1,0.4c-0.3,0.5-0.5,1-0.5,1.3c0,0.3,0,0.7,0.1,1.1c0,0.2-0.1,0.4-0.3,0.7
			c-0.4,0.3-0.5,0.6-0.3,0.9c0,0.1,0,0.2-0.1,0.3c-0.1,0.9-0.4,1.9-0.7,2.9c-0.1,0.3-0.2,0.6-0.2,0.9c-0.1,0.3-0.2,0.6-0.3,0.9
			c-0.1,0.3-0.1,0.5-0.1,0.5c0,0.2-0.1,0.4-0.1,0.6s-0.1,0.4-0.2,0.6c0,0.2-0.1,0.5-0.2,0.8h0.1c0.2,0,0.4,0.1,0.6,0.2
			c0-0.3,0.1-0.6,0.2-0.8c0.1-0.2,0.2-0.4,0.2-0.6c0-0.1,0-0.3,0.1-0.5c0.1-0.7,0.2-1.4,0.3-2.1c0-0.1,0-0.2,0.1-0.3
			c0.1-0.1,0.2-0.2,0.2-0.3c0,0.1,0,0.3,0,0.5c0,0.2,0,0.3,0,0.3c0.4-0.1,0.5,0,0.4,0.1c-0.1,0.2-0.1,0.4-0.2,0.6
			c-0.1,0.2-0.1,0.5-0.2,0.7c0,0.2-0.1,0.5-0.2,0.7c0,0.2,0,0.5-0.1,0.6c-0.1,0.2-0.3,0.3-0.7,0.4c0.2,0.3,0.4,0.7,0.3,1
			c0.1,0,0.1,0.1,0.2,0.1s0.1,0,0.2,0.1c0.4,0.1,0.6,0.3,0.8,0.5c0.2,0.2,0.4,0.5,0.6,0.8c0.2,0.3,0.4,0.7,0.6,1
			c0.2,0.3,0.4,0.7,0.6,1c0,0.1,0.1,0.2,0.1,0.3c0,0.1,0.1,0.2,0.1,0.3c0,0.3,0,0.6-0.1,0.9c0,0.3,0,0.6,0.2,0.9
			c0,0,0.1,0.1,0.1,0.2c-0.2,0.4-0.3,0.9-0.5,1.3c-0.2,0.4-0.3,0.9-0.5,1.3c-0.1,0.1-0.2,0.2-0.3,0.2c-0.1,0-0.2,0.1-0.3,0.1
			c0-0.1-0.1-0.3-0.1-0.4c0-0.1-0.1-0.3-0.1-0.4c0-0.2,0.1-0.5,0.1-0.6c0.1-0.2,0.1-0.4,0.2-0.6c0.2-1.2-0.1-1.8-1.1-1.8
			c-0.2,0-0.5,0-0.7,0c-0.2-0.1-0.5-0.1-0.7-0.1c-0.1,0-0.2-0.1-0.4-0.1l-0.1,0.1c-0.1,0.5-0.2,1.1-0.3,1.6c-0.2,0.7-0.3,1.3-0.5,2
			c-0.1,0.6-0.3,1.3-0.5,2c-0.2,0.6-0.3,1.3-0.5,1.8s-0.3,1.2-0.4,1.8c-0.1,0-0.2-0.1-0.3-0.2c0-0.1,0-0.3,0-0.6
			c0-0.2,0.1-0.5,0.1-0.7c0.1-0.2,0.1-0.4,0.2-0.6c0.1-0.8,0.3-1.6,0.4-2.4c0.1-0.8,0.2-1.5,0.3-2.3c0.6-0.4,0.9-0.9,1-1.3
			c0-0.2-0.1-0.5-0.1-0.6s0-0.4-0.1-0.6c-0.1,0-0.3-0.1-0.5-0.1c-0.2,0-0.4,0-0.5,0c0,0.1-0.1,0.2-0.1,0.2c0,0,0,0.1-0.1,0.2
			c-0.1,0.5-0.2,1-0.2,1.5c-0.1,0.5-0.2,1-0.3,1.5c-0.2,0.6-0.3,1.3-0.5,1.9c-0.2,0.6-0.3,1.2-0.5,1.8c-0.1,0.5-0.3,1-0.3,1.4
			c-0.1,0.5-0.2,1-0.3,1.4c-0.1,0.4-0.2,0.8-0.4,1.2S70,75.7,70,76.1c0,0.2,0,0.5-0.1,0.7c0,0.2-0.1,0.5-0.2,0.7
			c-0.1,0.1-0.1,0.2-0.2,0.4c-0.1,0.1-0.1,0.3-0.2,0.4c-0.1,0.5-0.3,1-0.3,1.4c-0.1,0.5-0.2,1-0.3,1.5c-0.1,0.2-0.2,0.5-0.2,0.8
			s-0.2,0.6-0.3,0.9c-0.1,0.4-0.3,0.8-0.4,1.3c-0.1,0.4-0.2,0.8-0.3,1.2c-0.1,0.4-0.2,0.8-0.2,1.2c0,0.1-0.1,0.2-0.1,0.3
			s-0.1,0.2-0.1,0.3s-0.1,0.2-0.1,0.4c0,0.1,0,0.3,0,0.4c0,0.3,0,0.6,0,0.9c0,0.3-0.2,0.7-0.6,1.2c-0.2,0.4-0.4,0.7-0.5,0.8
			c-0.1,0.1-0.2,0.2-0.2,0.2c-0.1,0-0.2,0.1-0.3,0.2c0-0.1,0-0.2,0-0.3c0-0.1,0-0.2,0-0.3c0.1-0.6,0.3-1.3,0.6-2.1
			c-0.2,0.2-0.3,0.4-0.4,0.6c-0.1,0.2-0.2,0.4-0.3,0.6c-0.1,0.1-0.1,0.2-0.2,0.3c-0.1,0.1-0.1,0.2-0.2,0.3c0-0.1-0.1-0.2-0.1-0.3
			s0-0.2-0.1-0.3c0.1-0.2,0.1-0.3,0.1-0.4c0.1-0.4,0.1-0.9,0.2-1.3c0.1-0.4,0.2-0.9,0.3-1.3c0.2-0.7,0.3-1.3,0.4-2
			c0.1-0.6,0-1.1-0.2-1.5c0-0.1,0-0.3,0.1-0.4l1.1-4.2c0.2-1,0.4-2,0.5-3c0-0.3,0-0.5-0.1-0.5c-0.3-0.3-0.4-0.8-0.2-1.5
			c0.2,0,0.3,0,0.4-0.1c0-0.1,0-0.2-0.1-0.3c0,0-0.1-0.1-0.1-0.2C67.1,73,67,72.8,67,72.6c0-0.2,0-0.4,0.1-0.5
			c0.2-0.2,0.3-0.4,0.3-0.6c0-0.1,0-0.3,0.1-0.5c0-0.1,0-0.2,0-0.3s0-0.2,0-0.4c0.1-0.6,0.3-1.2,0.5-1.8c0.2-0.6,0.1-1.1-0.1-1.6
			c-0.1-0.2-0.1-0.5-0.1-0.9c0-0.3,0.1-0.7,0.4-1.2c0.2-0.2,0.3-0.5,0.4-0.9h-0.1c-0.2,0-0.3,0-0.5,0.1c-0.2,0-0.3,0.1-0.5,0.1
			c-0.6,0.1-1.2,0.2-1.8,0.2c-0.6,0-1.2,0.1-1.8,0.2c-0.2,0-0.4,0.1-0.6,0.1c-0.2,0-0.4,0.1-0.6,0.2c-0.7,0.2-1.4,0.4-2.2,0.7
			c-0.8,0.2-1.5,0.4-2.2,0.4c-0.6,0-1.2,0.2-1.7,0.4s-1,0.4-1.6,0.5c-0.4,0.1-0.8,0.2-1.2,0.3c-0.4,0.1-0.8,0.2-1.2,0.3
			c-0.1,0.2-0.3,0.5-0.4,0.7c-0.1,0.2-0.3,0.5-0.4,0.7c-0.2,0.4-0.5,0.8-0.7,1.3c-0.2,0.4-0.5,0.9-0.7,1.3c-0.3,0.5-0.6,1.1-0.9,1.7
			c-0.3,0.6-0.6,1.1-0.9,1.7c-0.1,0.2-0.2,0.4-0.3,0.6c-0.1,0.2-0.2,0.4-0.3,0.6c-0.3,0.4-0.6,0.8-0.8,1.1c-0.3,0.4-0.5,0.8-0.8,1.1
			c-0.3,0.4-0.5,0.9-0.7,1.3c-0.2,0.4-0.4,0.9-0.7,1.3c-0.2,0.3-0.4,0.6-0.6,0.9c-0.2,0.3-0.4,0.6-0.6,0.8h-0.2
			c0.1-0.1,0.1-0.3,0.2-0.4c0.1-0.1,0.1-0.3,0.2-0.4c0.2-0.4,0.4-0.8,0.7-1.1c0.2-0.3,0.4-0.7,0.6-1c0.1-0.2,0.3-0.4,0.4-0.6
			s0.2-0.4,0.3-0.6c0.2-0.4,0.5-0.8,0.7-1.1c0.2-0.3,0.5-0.7,0.7-1.1c0.4-0.7,0.7-1.4,1.1-2c0.3-0.7,0.7-1.3,1.1-2
			c0.5-0.8,0.9-1.6,1.2-2.3c0.4-0.8,0.8-1.5,1.2-2.3c-0.2,0.1-0.5,0.2-0.7,0.2c-0.2,0-0.4,0.1-0.7,0.2c-0.1,0-0.2,0.1-0.3,0.1
			c-0.2,0.5-0.5,0.9-0.8,1.2c0,0-0.1,0.1-0.1,0.2c0,0.1,0,0.1-0.1,0.2c-0.2,0.4-0.4,0.8-0.6,1.2c-0.2,0.4-0.4,0.8-0.6,1.3
			c-0.1-0.2-0.1-0.4-0.1-0.5c0-0.1,0-0.2-0.1-0.3c-0.2,0.2-0.4,0.5-0.6,0.7c-0.1,0.2-0.1,0.4,0,0.6c0.3,0.4,0.1,1-0.6,1.7
			c-0.5,0.5-0.9,1.1-1.2,1.8c-0.2,0.5-0.4,1.1-0.6,1.6c-0.2,0.5-0.5,1-1,1.5c-0.2,0.1-0.3,0.4-0.4,0.6c-0.1,0.3-0.3,0.5-0.4,0.8
			c-0.2,0.4-0.4,0.8-0.6,1.1c-0.2,0.3-0.4,0.7-0.6,1.1c-0.4,0.6-0.8,1.2-1.2,1.8s-0.8,1.2-1.2,1.8c-0.1,0.1-0.1,0.2-0.1,0.3
			c0,0.1-0.1,0.2-0.1,0.3c-0.2,0.4-0.4,0.8-0.6,1.2c-0.2,0.4-0.4,0.8-0.7,1.2c-0.3,0.3-0.6,0.7-0.8,1c-0.3,0.3-0.6,0.6-0.8,1
			c-0.1,0.2-0.2,0.4-0.3,0.6c-0.1,0.2-0.2,0.4-0.2,0.6c-0.1,0.1-0.1,0.2-0.1,0.3c0,0.1-0.1,0.2-0.1,0.3c-0.2,0.2-0.4,0.5-0.5,0.7
			c-0.2,0.2-0.4,0.4-0.5,0.7c0,0,0.1,0.1,0.1,0.1c0,0,0,0.1,0.1,0.1c0.2-0.1,0.3-0.2,0.4-0.2c0.1,0,0.3-0.1,0.4-0.2
			c0.4-0.2,0.7-0.4,1-0.7c0.3-0.1,0.5-0.4,0.6-0.8c0.1-0.3,0.2-0.6,0.3-0.9c0.2-0.3,0.3-0.6,0.4-0.9c0.1-0.1,0.2-0.2,0.3-0.3
			c0.1,0,0.2,0.1,0.2,0.2v1c-0.3,0.2-0.5,0.4-0.7,0.7c-0.4,0.5-0.8,1-1.2,1.5c-0.4,0.5-0.8,1-1.2,1.5c-1,1.3-1.8,1.8-2.6,1.6
			c0,0-0.1-0.2-0.1-0.3c0-0.2,0-0.3,0.1-0.4c0.2-0.3,0.4-0.7,0.6-1c0.2-0.3,0.4-0.6,0.6-1c0.1-0.2,0.2-0.4,0.3-0.6
			c0.1-0.2,0.2-0.4,0.3-0.6c0.4-0.6,0.7-1.2,1.1-1.7c0.4-0.6,0.7-1.1,1.1-1.7c0.2-0.3,0.3-0.7,0.5-1c0.1-0.3,0.3-0.7,0.4-1
			c0.2-0.3,0.3-0.7,0.4-1c0.1-0.3,0.3-0.7,0.4-1.1c0.3-0.5,0.6-1,0.9-1.5c0.3-0.5,0.6-1,0.9-1.5c0.2-0.4,0.5-0.8,0.7-1.2
			c0.2-0.4,0.4-0.8,0.6-1.2c0,0-0.1-0.1-0.2-0.1s-0.2,0-0.2,0c-0.1,0-0.1-0.1-0.1-0.1c0,0,0.1-0.2,0.2-0.4c0.2-0.3,0.4-0.7,0.6-1
			c0.2-0.3,0.4-0.7,0.6-1c0.2-0.1,0.3-0.3,0.3-0.6c0-0.6,0.2-1.2,0.4-1.7c0.2-0.6,0.6-1.1,1-1.7c0.1-0.2,0.2-0.4,0.3-0.5
			c0.2-0.4,0.4-0.8,0.5-1.3c0.2-0.4,0.4-0.9,0.6-1.3c0-0.1,0.1-0.2,0.2-0.2c0.1,0,0.1-0.1,0.2-0.2c-0.1,0-0.2,0.1-0.2,0.1
			c-0.1,0-0.2,0-0.2,0.1l-2,1.2c-0.1,0.1-0.2,0.1-0.3,0.1c-0.1,0-0.2,0-0.3,0.1c-0.2,0.1-0.4,0.2-0.6,0.2c-0.2,0-0.4,0.1-0.6,0.2
			c0,0-0.1,0-0.1,0.1c0,0-0.1,0.1-0.2,0.1c-0.1,0-0.3-0.2-0.6-0.6s-0.4-0.7-0.3-0.9c0-0.1-0.1-0.2-0.1-0.4c-0.1-0.4-0.1-0.8-0.2-1.1
			c-0.1-0.3-0.2-0.7-0.2-1.1c-0.1-0.5-0.1-0.9,0.2-1.3c0.2-0.2,0.3-0.5,0.3-1c0-0.3,0.1-0.5,0.2-0.6c0.1-0.1,0.2-0.3,0.3-0.4
			c0.2-0.1,0.4-0.3,0.5-0.4c0.2-0.1,0.3-0.3,0.5-0.5c0.4-0.2,0.8-0.5,1.3-0.8c0.5-0.3,1-0.5,1.5-0.7c0.6-0.2,1.1-0.4,1.7-0.7
			c0.7-0.2,1.3-0.5,2-0.7s1.3-0.4,1.9-0.6c0.2-0.5,0.4-1,0.7-1.4c0.2-0.5,0.5-0.9,0.7-1.4c0.1-0.1,0.1-0.3,0.2-0.5
			c0.1-0.2,0.1-0.4,0.1-0.6c0.4-1.1,1-2.3,1.8-3.5c0.8-1,1.3-2.1,1.4-3.2c0.1-0.4,0.3-0.8,0.6-1.2c0.3-0.4,0.6-0.7,0.9-0.8
			c0.4-0.1,0.6-0.4,0.6-0.8c-0.1-0.8,0-1.5,0.3-2.1c0.2-0.5,0.4-1,0.6-1.4c0.2-0.4,0.4-0.9,0.6-1.4c0.3-0.7,0.6-1.4,0.9-2
			c0.3-0.6,0.7-1.3,1.2-1.9c0.1-0.1,0.1-0.2,0.1-0.3c0-0.1,0.1-0.2,0.1-0.3c0.1-0.2,0.1-0.4,0.2-0.6c0.1-0.2,0.1-0.4,0.2-0.6
			c0.1-0.2,0.2-0.5,0.4-0.7c0.1-0.2,0.2-0.4,0.3-0.6c0.2-0.4,0.4-0.9,0.6-1.3c0.2-0.4,0.4-0.9,0.6-1.3c0.1-0.4,0.3-0.8,0.6-1.2
			c0.3-0.4,0.5-0.8,0.7-1.2c0.3-0.6,0.5-1.1,0.6-1.6c0.3-1.4,0.9-2.6,1.9-3.8c0.1-0.1,0.2-0.2,0.3-0.4c0.1-0.2,0.1-0.3,0.1-0.4
			c0-0.4,0.1-0.9,0.3-1.4c0.2-0.5,0.5-0.9,0.7-1.4c0.2-0.4,0.3-0.8,0.5-1.1c0.2-0.4,0.3-0.8,0.5-1.1c0.2-0.2,0.3-0.4,0.3-0.5
			c0.1-0.1,0.2-0.3,0.3-0.4c0.1-0.1,0.2-0.3,0.3-0.4c0.2-0.4,0.4-0.8,0.6-1.1c0.2-0.3,0.4-0.7,0.5-1.1c0.2-0.7,0.5-1.3,0.9-1.9
			c0.4-0.6,0.8-1.1,1.4-1.6c0.1,0,0.1-0.1,0.2-0.1c0,0,0.1-0.1,0.2-0.2c0.7-0.8,1.4-1.5,2-2c0.7-0.5,1.3-0.6,2-0.4
			c0.2,0.1,0.5,0,0.7-0.2c0.3-0.2,0.6-0.4,0.7-0.4c0.2,0,0.4,0,0.5,0.1c0,0,0,0,0,0c0,0,0,0,0,0c0.3-0.4,0.7-0.8,1.1-1
			c0.3-0.1,0.6-0.3,0.9-0.5C82,7,82.3,6.8,82.6,6.6c0,0,0.1,0,0.2-0.1c0.4-0.6,0.8-0.9,1.2-1.1C84.3,5.3,84.7,5.1,85,5
			c0.4-0.1,0.8-0.2,1.2-0.2C86.5,4.8,86.9,4.8,87.2,4.8z M45.4,72.9c0-0.2-0.1-0.3-0.2-0.3c-0.1,0-0.1,0-0.2,0.1
			c-0.1,0-0.1,0.1-0.2,0.1c-0.1,0.2-0.3,0.5-0.4,0.7c-0.1,0.2-0.2,0.5-0.4,0.7c0,0.1-0.1,0.2-0.1,0.3s0,0.1,0.1,0.1
			c0.1,0,0.2,0,0.3-0.1c0.1,0,0.2-0.1,0.3-0.2c0.1-0.2,0.2-0.5,0.3-0.8C45.2,73.4,45.3,73.1,45.4,72.9z M55.7,58.1
			c-0.1,0.1-0.1,0.3-0.2,0.5c-0.1,0.2-0.2,0.3-0.2,0.5l1.1-0.2c0,0,0.1,0,0.1,0c0,0,0,0,0.1,0c0.1-0.1,0.1-0.2,0.2-0.3
			c0-0.1,0.1-0.2,0.2-0.3c0.3-0.4,0.6-0.8,0.7-1.1c0.2-0.3,0.3-0.7,0.5-1.1c0.2-0.4,0.4-0.6,0.6-0.6c0.1,0,0.1,0,0.2,0
			c0.1,0,0.1,0,0.2,0c0-0.1-0.1-0.3-0.1-0.3c0-0.1-0.1-0.2-0.1-0.3c0,0,0.1-0.1,0.2-0.1c0-0.1,0.1-0.3,0.1-0.4c0-0.1,0-0.3,0.1-0.5
			c0-0.1,0-0.3,0.1-0.4c0.2-0.2,0.3-0.5,0.5-0.8c0.1-0.3,0.3-0.6,0.5-0.9c-0.1-0.2-0.1-0.4,0-0.7c0.1-0.2,0.2-0.5,0.4-0.8
			c0.2-0.3,0.4-0.7,0.6-1c0.2-0.3,0.4-0.6,0.6-1c0.1-0.1,0.1-0.3,0.2-0.5c0.1-0.2,0-0.3-0.2-0.3c-0.2,0-0.5,0.2-0.8,0.7
			c-0.5,1-1,2-1.4,3c-0.5,1-1,2-1.6,3c-0.5,0.6-0.9,1.3-1.2,2C56.4,56.7,56.1,57.4,55.7,58.1z M57.6,58.5c0-0.2,0-0.3,0.1-0.4
			c-0.1,0.1-0.1,0.2-0.2,0.3c-0.1,0.1-0.1,0.2-0.2,0.3C57.4,58.6,57.6,58.5,57.6,58.5z M67.8,59.5c0.2,0,0.4-0.1,0.6,0
			c0.2,0,0.4,0,0.6,0h0.4c0.1-0.2,0.1-0.5,0.2-0.7c0-0.2,0.1-0.4,0.1-0.6h-0.1c-0.5,0-1,0-1.5,0s-1,0.2-1.5,0.3c-0.1,0-0.1,0-0.2,0
			c-0.1,0-0.1,0-0.2,0c-0.4,0-0.8-0.1-1.3-0.2s-0.8,0-1.3,0.3c-0.2,0.1-0.4,0.2-0.6,0.2c-0.2,0-0.4,0.1-0.6,0.1
			c-0.3,0-0.5,0.1-0.8,0.1c-0.2,0-0.5,0-0.8,0c-0.3,0-0.6,0.1-1,0.1s-0.6,0-1,0.1h-1.3c0,0.1-0.1,0.2-0.1,0.4c0.1,0,0.3,0,0.4,0
			c0.1,0,0.3,0,0.5,0c0.1,0,0.2,0,0.3,0c0.1,0,0.2,0,0.3,0c0.2,0,0.3,0.1,0.5,0.1c0.1,0,0.3,0.1,0.5,0.1c0.2,0,0.4,0,0.7,0
			c0.2,0,0.4-0.1,0.7-0.1c0.2,0,0.4-0.1,0.7-0.1c0.2,0,0.4-0.1,0.7-0.1c0.1,0,0.1,0,0.2,0c0.1,0,0.1,0,0.2,0
			c0.3,0.1,0.6,0.1,0.8,0.1c0.3,0,0.6-0.1,0.8-0.1c0.3-0.1,0.6-0.1,0.8-0.1c0.3,0,0.5,0.1,0.8,0.2h0.1c0.2,0,0.4-0.1,0.6-0.1
			C67.4,59.5,67.6,59.5,67.8,59.5z M63,48.4c-0.2,0.3-0.3,0.7-0.4,1c-0.1,0.3-0.3,0.7-0.4,1c-0.1-0.1-0.2-0.1-0.3-0.1
			c-0.1,0-0.2,0-0.3-0.1c-0.3,0.7-0.6,1.5-0.9,2.3c0.2-0.2,0.4-0.5,0.5-0.7s0.3-0.4,0.4-0.5c-0.1,1.1-0.8,1.9-1.8,2.4
			c0.2,0,0.4,0.1,0.4,0.2c0.1,0.1,0.1,0.2,0.1,0.3c0,0.1-0.1,0.2-0.2,0.4c-0.1,0.1-0.2,0.3-0.3,0.4c-0.1,0.1-0.1,0.2-0.2,0.3
			c0,0.1-0.1,0.2-0.2,0.3c-0.3,0.4-0.5,0.9-0.7,1.3c-0.2,0.4-0.4,0.9-0.6,1.3c0,0-0.1,0-0.1,0.1c1.1-0.2,2.2-0.4,3.3-0.4
			c1.2-0.1,2.5-0.2,3.7-0.3c1.2-0.1,2.4-0.1,3.6-0.1h1.2c0.1-0.2,0.1-0.4,0.2-0.6s0.1-0.4,0.2-0.6c-0.2,0.1-0.3,0.3-0.4,0.3
			c-0.1,0.1-0.2,0.2-0.3,0.3c0-0.1,0-0.2,0-0.3c0-0.1,0-0.2,0-0.3c0.1-0.3,0.1-0.6,0.2-0.9s0.1-0.6,0.2-0.9c0.1-0.1,0.2-0.2,0.3-0.4
			C70,54.5,69.9,54.8,70,55c0,0.1,0,0.2,0.2,0.4c0.1,0,0.1-0.1,0.1-0.1c0,0,0.1-0.1,0.1-0.1c0-0.4,0.1-0.8,0.1-1.1
			c0-0.3,0.1-0.7,0.1-1.1c0-0.1,0.1-0.3,0.1-0.5c0-0.2,0-0.4,0.1-0.6c0-0.2,0.1-0.4,0.1-0.6c0-0.2-0.1-0.3-0.2-0.3
			c0,0-0.1-0.1-0.3-0.4l0.8-0.4c0-0.2-0.1-0.4-0.1-0.5c0-0.1,0-0.3-0.1-0.4c-0.1-0.2-0.1-0.4-0.1-0.6c0-0.2,0.1-0.4,0.4-0.7
			c-0.2-0.3-0.1-0.6,0.3-1c0.2-0.2,0.3-0.4,0.3-0.5s0-0.2-0.1-0.3c-0.1-0.2-0.1-0.4-0.2-0.6c-0.1-0.2-0.1-0.3-0.1-0.5
			c-0.1-0.1-0.1-0.3-0.1-0.4c0-0.1,0.2-0.2,0.4-0.4c0.1-0.1,0.2-0.2,0.3-0.4c0.1-0.1,0.2-0.3,0.2-0.4c0-0.2,0-0.4,0-0.6
			c0-0.2-0.1-0.3-0.2-0.3c-0.4,0-0.3-0.3,0.1-0.7c0.5-0.4,0.6-0.8,0.4-1.2c-0.1-0.1-0.1-0.4-0.1-0.8c0.4-0.3,0.7-0.6,0.7-0.6
			c0-0.1-0.1-0.2-0.3-0.4c-0.1-0.1-0.2-0.2-0.2-0.3c0-0.1,0.1-0.3,0.4-0.6c0.2,0,0.3-0.1,0.3-0.3c0-0.2,0-0.5,0.1-0.7
			c0-0.2,0-0.4-0.1-0.5c-0.1-0.1-0.2-0.3-0.2-0.6c0-0.2,0.1-0.5,0.1-0.8c0.1-0.2,0.1-0.5,0.2-0.7c0.1-0.2,0.3-0.4,0.7-0.5
			c0-0.3-0.1-0.6-0.1-0.9c0-0.3-0.1-0.6-0.1-0.9c0-0.1,0-0.2,0-0.3c0-0.1,0-0.2,0.1-0.3c0.3-0.4,0.4-0.7,0.5-1s0.1-0.6,0.3-1
			c0.2-0.5,0.2-0.8-0.2-0.8c-0.1,0-0.2,0-0.2-0.1c0.1-0.3,0.1-0.7,0.2-1c0.1-0.3,0.1-0.7,0.2-1c0.2-0.6,0.3-1.2,0.3-1.8
			c0-0.1,0.1-0.3,0.1-0.5c-0.1,0.1-0.1,0.3-0.2,0.4c-0.1,0.1-0.1,0.2-0.2,0.3c-0.3,0.5-0.6,1.1-0.8,1.7c-0.3,0.6-0.5,1.1-0.8,1.7
			c-0.2,0.4-0.5,0.8-0.7,1.2c-0.2,0.4-0.5,0.8-0.7,1.2c-0.2,0.5-0.5,1-0.7,1.5c-0.2,0.5-0.5,1-0.8,1.5c-0.8,1.6-1.7,3.3-2.5,4.9
			c-0.1,0.2-0.2,0.5-0.3,0.7c-0.2,0.2-0.3,0.4-0.3,0.6c-0.3,0.9-0.7,1.8-1.2,2.7c-0.5,0.9-1,1.7-1.5,2.6c-0.2,0.5-0.4,1-0.7,1.4
			C63.5,47.5,63.2,48,63,48.4z M62.5,46c0,0,0.1,0.1,0.1,0.1h0.1c0.1,0,0.2-0.1,0.3-0.3c0.1-0.2,0.2-0.5,0.3-0.7
			c0.1-0.2,0.2-0.5,0.3-0.7c-0.1,0-0.1,0-0.2-0.1c-0.2,0.3-0.3,0.6-0.4,0.9C62.8,45.4,62.7,45.7,62.5,46z M68,85.9
			c0,0.1,0.1,0.2,0.1,0.2c0,0,0,0.1,0,0.2c-0.1,0.2-0.2,0.5-0.3,0.8c-0.1,0.3-0.3,0.6-0.4,0.9h-0.2c0.1-0.2,0.1-0.5,0.2-0.8
			s0.1-0.5,0.2-0.8c0-0.1,0.1-0.2,0.2-0.3C67.9,86.1,68,86,68,85.9z M71.5,74.2c0-0.1,0.1-0.2,0.2-0.4c0.1-0.1,0.1-0.3,0.2-0.4h0.2
			c-1,3.9-2.2,7.9-3.6,12c-0.1-0.1-0.2-0.2-0.3-0.3c-0.1-0.1-0.1-0.2-0.1-0.2c0.3-0.4,0.4-0.7,0.5-1c0.1-0.3,0.1-0.6,0.2-0.9
			c0.1-0.3,0.3-0.7,0.4-1s0.2-0.7,0.3-1c0.2-0.5,0.3-1,0.4-1.4c0.1-0.5,0.3-1,0.4-1.5c0.1-0.3,0.2-0.6,0.3-0.9
			c0.1-0.3,0.2-0.6,0.3-0.8c0.1-0.4,0.2-0.8,0.3-1.1C71.4,74.9,71.5,74.5,71.5,74.2z M68.9,76.1c0.4-1.6,0.7-3.1,1-4.6
			c0.3-1.5,0.7-3,1-4.6c-0.3,0.3-0.5,0.5-0.6,0.5c-0.1,0.3-0.2,0.6-0.3,0.9c-0.2,0.3-0.2,0.6,0,0.8c0,0.1,0,0.4-0.2,0.7
			c-0.1,0.3-0.1,0.5-0.2,0.6c0,0.1-0.1,0.2-0.1,0.3c0,0.1-0.1,0.2-0.1,0.3c-0.1,0.2-0.2,0.4-0.3,0.6C69,71.6,69,71.8,69,71.9
			c0.1,0.3,0.1,0.6-0.1,1c-0.1,0.4-0.2,0.7-0.3,1.1l-0.1,0.1c0,0.3,0,0.6,0.1,0.9c0.1,0.3,0,0.6-0.2,1c0,0,0.1,0.1,0.1,0.1
			c0,0,0.1,0,0.1,0C68.8,76.1,68.8,76.1,68.9,76.1z M73.1,57.8c0.1,0,0.2,0.1,0.3,0.1c0.1,0,0.2,0,0.2,0.1c0.1,0,0.1-0.1,0.1-0.2
			c0-0.1,0-0.3-0.1-0.5c0-0.1-0.1-0.1-0.2-0.1c-0.1,0.1-0.2,0.2-0.3,0.4c0,0.1,0,0.2,0,0.2C73.1,57.7,73.1,57.8,73.1,57.8z
			 M74.1,54.6c-0.1,0.1-0.3,0.3-0.4,0.4c-0.2,0.1-0.3,0.3-0.3,0.4c-0.1,0.1-0.1,0.2,0.1,0.3c0.1,0.1,0.2,0.2,0.3,0.3l0.3-0.4
			C74.1,55.4,74.1,55,74.1,54.6z M75.2,50.4c0.2-0.7,0.4-1.5,0.5-2.1c0.1-0.7,0.2-1.4,0.4-2.1c-0.4,0.3-0.6,0.7-0.6,0.9
			c-0.1,0.3-0.1,0.6-0.1,0.9c-0.1,0.4-0.1,0.8-0.2,1.2c-0.1,0.4-0.1,0.8-0.2,1.2c0,0,0,0.1,0,0.1c0,0,0,0.1,0,0.1
			c0.1,0,0.1-0.1,0.1-0.1C75.1,50.4,75.1,50.4,75.2,50.4z M76.8,60.3c-0.2-0.2-0.4-0.4-0.6-0.6c-0.2-0.2-0.4-0.3-0.6-0.4h-0.1
			c-0.1,0.1-0.1,0.2-0.2,0.4c0,0.1-0.1,0.3-0.2,0.4c0.2,0,0.4,0.1,0.6,0.1c0.2,0,0.4,0.1,0.6,0.1c0.1,0,0.2,0.1,0.4,0.1
			c0,0,0-0.1,0-0.1C76.8,60.4,76.8,60.3,76.8,60.3z"/>
	</g>
</g>
</svg>
