<?xml version="1.0" encoding="utf-8"?>
<!-- Generator: Adobe Illustrator 23.0.0, SVG Export Plug-In . SVG Version: 6.00 Build 0)  -->
<svg version="1.1" id="Ebene_1" xmlns="http://www.w3.org/2000/svg" xmlns:xlink="http://www.w3.org/1999/xlink" x="0px" y="0px"
	 viewBox="0 0 54.2 55.9" style="enable-background:new 0 0 54.2 55.9;" xml:space="preserve">
<style type="text/css">
	.st0{fill:#231F20;}
</style>
<path class="st0" d="M19.4,27.9c0-4.2,3.4-7.7,7.7-7.7c4.2,0,7.7,3.4,7.7,7.7s-3.4,7.7-7.7,7.7C22.9,35.6,19.4,32.2,19.4,27.9
	 M15.3,27.9c0,6.5,5.3,11.8,11.8,11.8c6.5,0,11.8-5.3,11.8-11.8c0-6.5-5.3-11.8-11.8-11.8C20.6,16.1,15.3,21.4,15.3,27.9 M36.6,15.7
	c0,1.5,1.2,2.8,2.8,2.8c1.5,0,2.8-1.2,2.8-2.8c0-1.5-1.2-2.8-2.8-2.8S36.6,14.1,36.6,15.7 M17.8,46.7c-2.2-0.1-3.5-0.5-4.3-0.8
	c-1.1-0.4-1.8-0.9-2.6-1.7c-0.8-0.8-1.3-1.6-1.7-2.6c-0.3-0.8-0.7-2-0.8-4.3c-0.1-2.4-0.1-3.2-0.1-9.3s0-6.9,0.1-9.3
	c0.1-2.2,0.5-3.5,0.8-4.3c0.4-1.1,0.9-1.8,1.7-2.6c0.8-0.8,1.6-1.3,2.6-1.7c0.8-0.3,2-0.7,4.3-0.8c2.4-0.1,3.2-0.1,9.3-0.1
	c6.1,0,6.9,0,9.3,0.1c2.2,0.1,3.5,0.5,4.3,0.8c1.1,0.4,1.8,0.9,2.6,1.7c0.8,0.8,1.3,1.6,1.7,2.6c0.3,0.8,0.7,2,0.8,4.3
	c0.1,2.4,0.1,3.2,0.1,9.3c0,6.1,0,6.9-0.1,9.3c-0.1,2.2-0.5,3.5-0.8,4.3c-0.4,1.1-0.9,1.8-1.7,2.6c-0.8,0.8-1.6,1.3-2.6,1.7
	c-0.8,0.3-2,0.7-4.3,0.8c-2.4,0.1-3.2,0.1-9.3,0.1C21,46.8,20.2,46.8,17.8,46.7 M17.6,5.1c-2.4,0.1-4.1,0.5-5.6,1.1
	c-1.5,0.6-2.8,1.4-4.1,2.7c-1.3,1.3-2.1,2.6-2.7,4.1c-0.6,1.5-1,3.1-1.1,5.6c-0.1,2.5-0.1,3.2-0.1,9.5c0,6.2,0,7,0.1,9.5
	c0.1,2.5,0.5,4.1,1.1,5.6c0.6,1.5,1.4,2.8,2.7,4.1c1.3,1.3,2.6,2.1,4.1,2.7c1.5,0.6,3.1,1,5.6,1.1c2.5,0.1,3.2,0.1,9.5,0.1
	c6.3,0,7,0,9.5-0.1c2.5-0.1,4.1-0.5,5.6-1.1c1.5-0.6,2.8-1.4,4.1-2.7c1.3-1.3,2.1-2.6,2.7-4.1c0.6-1.5,1-3.1,1.1-5.6
	c0.1-2.5,0.1-3.2,0.1-9.5c0-6.2,0-7-0.1-9.5c-0.1-2.4-0.5-4.1-1.1-5.6c-0.6-1.5-1.4-2.8-2.7-4.1c-1.3-1.3-2.6-2.1-4.1-2.7
	c-1.5-0.6-3.1-1-5.6-1.1c-2.5-0.1-3.2-0.1-9.5-0.1C20.9,4.9,20.1,4.9,17.6,5.1"/>
</svg>
